# xmcd
#
# Track frame offsets: 
#        150
#        22159
#        41767
#        63985
#        85763
#        105280
#        130811
#        153287
#        170346
#        197104
#
# Disc length: 2939 seconds
#
# Revision: 3
# Processed by: cddbd v1.5.1PL2 Copyright (c) Steve Scherf et al.
# Submitted via: ExactAudioCopy v0.95a5
#
DISCID=7a0b790a
DTITLE=Fayray - Hikari To Kage
DYEAR=2006
DGENRE=JPop
TTITLE0=Home
TTITLE1=Pain
TTITLE2=Close Your Eyes
TTITLE3=Nostalgia
TTITLE4=Hikari To Kage
TTITLE5=Nami
TTITLE6=Spotlight
TTITLE7=Shame
TTITLE8=Angel
TTITLE9=Aisansan
EXTD=Streamripper!
EXTT0=
EXTT1=
EXTT2=
EXTT3=
EXTT4=
EXTT5=
EXTT6=
EXTT7=
EXTT8=
EXTT9=
PLAYORDER=
